<svg width="52" height="40" viewBox="0 0 52 40" fill="none" xmlns="http://www.w3.org/2000/svg">
<mask id="mask0_2309_59744" style="mask-type:alpha" maskUnits="userSpaceOnUse" x="0" y="0" width="52" height="40">
<g clip-path="url(#clip0_2309_59744)">
<path fill-rule="evenodd" clip-rule="evenodd" d="M24.2241 21.6218C22.0379 23.0998 18.5198 23.4827 15.9521 20.8247L14.6067 19.4331C14.341 19.1574 13.9461 18.9995 13.5286 18.9995H13.5271C13.1097 18.9995 12.7178 19.1574 12.452 19.4331L10.8799 21.0601C9.67118 22.3102 8.05102 23 6.31824 23C5.40831 23 4.51639 22.8093 3.66502 22.4353C1.22952 21.3611 -0.168415 19.0844 0.0162747 16.4904C0.0958563 15.4028 0.418687 14.3688 0.975759 13.4122L7.27622 2.58182C8.58256 0.339459 10.922 -1 13.5301 -1C16.1398 -1 18.4762 0.339459 19.781 2.58182L26.0845 13.4137C26.2001 13.6134 26.3037 13.8115 26.3953 14.0127C27.8969 17.2354 26.3863 20.1572 24.2241 21.6218Z" fill="#37474F"/>
<g clip-path="url(#clip1_2309_59744)">
<path fill-rule="evenodd" clip-rule="evenodd" d="M29.7759 0.378195C31.9621 -1.09983 35.4802 -1.48274 38.0479 1.17531L39.3933 2.56692C39.659 2.84256 40.0539 3.00049 40.4714 3.00049L40.4729 3.00049C40.8903 3.00049 41.2822 2.84256 41.548 2.56692L43.1201 0.939904C44.3288 -0.310157 45.949 -1 47.6818 -1C48.5917 -1 49.4836 -0.809288 50.335 -0.435313C52.7705 0.638937 54.1684 2.91557 53.9837 5.50956C53.9041 6.59722 53.5813 7.63124 53.0242 8.58778L46.7238 19.4182C45.4174 21.6605 43.078 23 40.4699 23C37.8602 23 35.5238 21.6605 34.219 19.4182L27.9155 8.58629C27.7999 8.38664 27.6963 8.18848 27.6047 7.98733C26.1031 4.76459 27.6137 1.84281 29.7759 0.378195Z" fill="#37474F"/>
</g>
<g clip-path="url(#clip2_2309_59744)">
<path fill-rule="evenodd" clip-rule="evenodd" d="M29.7759 24.3782C31.9621 22.9002 35.4802 22.5173 38.0479 25.1753L39.3933 26.5669C39.659 26.8426 40.0539 27.0005 40.4714 27.0005L40.4729 27.0005C40.8903 27.0005 41.2822 26.8426 41.548 26.5669L43.1201 24.9399C44.3288 23.6898 45.949 23 47.6818 23C48.5917 23 49.4836 23.1907 50.335 23.5647C52.7705 24.6389 54.1684 26.9156 53.9837 29.5096C53.9041 30.5972 53.5813 31.6312 53.0242 32.5878L46.7238 43.4182C45.4174 45.6605 43.078 47 40.4699 47C37.8602 47 35.5238 45.6605 34.219 43.4182L27.9155 32.5863C27.7999 32.3866 27.6963 32.1885 27.6047 31.9873C26.1031 28.7646 27.6137 25.8428 29.7759 24.3782Z" fill="#37474F"/>
</g>
</g>
</mask>
<g mask="url(#mask0_2309_59744)">
<rect width="52" height="40" fill="#0D3EB8"/>
</g>
<defs>
<clipPath id="clip0_2309_59744">
<rect width="52" height="40" fill="white"/>
</clipPath>
<clipPath id="clip1_2309_59744">
<rect width="27" height="24" fill="white" transform="translate(54 23) rotate(-180)"/>
</clipPath>
<clipPath id="clip2_2309_59744">
<rect width="27" height="24" fill="white" transform="translate(54 47) rotate(-180)"/>
</clipPath>
</defs>
</svg>
