<svg width="100" height="24" viewBox="0 0 100 24" fill="none" xmlns="http://www.w3.org/2000/svg">
<path fill-rule="evenodd" clip-rule="evenodd" d="M17.9221 19.3145C16.7573 20.1081 14.8821 20.3145 13.5149 18.8873L12.7981 18.1393C12.6565 17.9913 12.4461 17.9065 12.2237 17.9065H12.2229C12.0005 17.9065 11.7917 17.9913 11.6501 18.1393L10.8125 19.0129C10.1685 19.6849 9.30528 20.0545 8.38208 20.0545C7.89728 20.0545 7.42208 19.9529 6.96848 19.7521C5.67088 19.1753 4.92608 17.9521 5.02448 16.5593C5.06688 15.9753 5.23888 15.4201 5.53568 14.9065L8.89248 9.0921C9.58848 7.8873 10.8349 7.1681 12.2245 7.1681C13.6149 7.1681 14.8597 7.8873 15.5549 9.0921L18.9133 14.9081C18.9749 15.0153 19.0301 15.1217 19.0789 15.2289C19.8789 16.9593 19.0741 18.5281 17.9221 19.3145ZM23.6301 14.6641L17.2149 3.5529C14.9893 -0.302301 9.42448 -0.302301 7.19808 3.5529L0.783675 14.6641C-1.44273 18.5193 1.33967 23.3385 5.79248 23.3385H18.6213C23.0733 23.3385 25.8557 18.5193 23.6301 14.6641Z" fill="white"/>
<path fill-rule="evenodd" clip-rule="evenodd" d="M17.5916 15.9161C17.562 15.8529 17.5292 15.7889 17.4932 15.7257L14.1372 9.91052C13.7372 9.22012 13.022 8.80652 12.2244 8.80652C11.426 8.80652 10.7108 9.22012 10.3116 9.91052L6.95398 15.7273C6.78118 16.0249 6.68198 16.3433 6.65878 16.6753C6.60118 17.4945 7.12358 18.0281 7.63318 18.2537C8.32918 18.5641 9.11398 18.4161 9.62998 17.8785L10.4668 17.0057C11.3948 16.0393 13.054 16.0393 13.9804 17.0057L14.6972 17.7521C15.41 18.4953 16.366 18.3929 16.998 17.9609C17.1932 17.8281 18.1404 17.1025 17.5916 15.9161Z" fill="white"/>
<path fill-rule="evenodd" clip-rule="evenodd" d="M33.6424 9.16298C33.5288 9.46778 33.4048 9.81257 33.2696 10.1958C33.1336 10.5798 32.9928 10.983 32.8464 11.4062C32.6992 11.8294 32.5528 12.259 32.4056 12.6934C32.2592 13.1286 32.1184 13.5478 31.9824 13.955H35.3184C35.172 13.5038 35.0224 13.0486 34.8696 12.5918C34.7176 12.1342 34.5704 11.6974 34.4288 11.2798C34.288 10.8614 34.156 10.4694 34.0312 10.103C33.9072 9.73577 33.8056 9.42218 33.7264 9.16298H33.6424ZM35.708 15.411H31.576L30.7464 18.0022C30.6448 18.0462 30.5376 18.0806 30.4256 18.1038C30.312 18.1262 30.176 18.1374 30.0184 18.1374C29.736 18.1374 29.5048 18.0758 29.3248 17.951C29.1432 17.827 29.0536 17.6406 29.0536 17.3918C29.0536 17.2678 29.0704 17.1462 29.104 17.0278C29.1376 16.9102 29.1832 16.7774 29.2392 16.6302C29.3864 16.1558 29.5928 15.5446 29.8576 14.7926C30.1232 14.0422 30.4048 13.2494 30.704 12.4134C31.0032 11.579 31.3056 10.7574 31.6104 9.94937C31.9152 9.14297 32.18 8.45097 32.4056 7.87657C32.5192 7.80857 32.6936 7.74377 32.9304 7.68057C33.168 7.61897 33.4104 7.58777 33.6592 7.58777C33.9864 7.58777 34.28 7.63337 34.5392 7.72377C34.7992 7.81337 34.9744 7.97177 35.064 8.19737C35.3128 8.84137 35.584 9.57177 35.8776 10.3902C36.1704 11.2094 36.464 12.0526 36.7584 12.9214C37.0512 13.791 37.3336 14.6438 37.604 15.479C37.8752 16.3142 38.1184 17.071 38.3328 17.747C38.2304 17.8606 38.0976 17.9542 37.9344 18.0278C37.7704 18.1006 37.576 18.1374 37.3512 18.1374C37.0456 18.1374 36.8256 18.079 36.6904 17.9598C36.5544 17.8414 36.4416 17.6406 36.3512 17.3582L35.708 15.411Z" fill="white"/>
<path fill-rule="evenodd" clip-rule="evenodd" d="M46.0204 15.8005C46.0204 16.5573 45.7372 17.1493 45.1732 17.5789C44.6084 18.0077 43.7908 18.2221 42.718 18.2221C42.278 18.2221 41.8716 18.1877 41.4996 18.1197C41.1268 18.0525 40.8076 17.9565 40.542 17.8325C40.2764 17.7085 40.0708 17.5613 39.9244 17.3917C39.7772 17.2221 39.7036 17.0365 39.7036 16.8341C39.7036 16.6645 39.746 16.5069 39.8316 16.3597C39.9156 16.2133 40.0316 16.0941 40.178 16.0037C40.4948 16.2069 40.8556 16.3933 41.262 16.5629C41.6692 16.7325 42.142 16.8173 42.6844 16.8173C43.1924 16.8173 43.582 16.7293 43.8532 16.5533C44.1236 16.3789 44.2596 16.1277 44.2596 15.8005C44.2596 15.5181 44.1668 15.2925 43.9796 15.1229C43.794 14.9533 43.5196 14.8237 43.1588 14.7341L42.0068 14.4293C41.2388 14.2261 40.6748 13.9501 40.3132 13.5989C39.9524 13.2501 39.7716 12.7693 39.7716 12.1597C39.7716 11.8325 39.8388 11.5245 39.9748 11.2373C40.11 10.9501 40.3108 10.7013 40.5764 10.4917C40.8412 10.2837 41.1708 10.1189 41.5668 10.0005C41.962 9.88288 42.4132 9.82288 42.922 9.82288C43.3276 9.82288 43.698 9.85408 44.0308 9.91648C44.3636 9.97888 44.6508 10.0629 44.894 10.1701C45.1372 10.2781 45.326 10.4101 45.4612 10.5677C45.5972 10.7261 45.6652 10.8957 45.6652 11.0765C45.6652 11.2565 45.6252 11.4125 45.546 11.5413C45.4668 11.6717 45.366 11.7765 45.2412 11.8549C45.038 11.7309 44.7364 11.5957 44.3356 11.4493C43.9348 11.3021 43.5028 11.2285 43.0396 11.2285C42.566 11.2285 42.1932 11.3109 41.9228 11.4741C41.6516 11.6373 41.5156 11.8669 41.5156 12.1597C41.5156 12.3853 41.5924 12.5717 41.7444 12.7181C41.8972 12.8653 42.1596 12.9837 42.5324 13.0741L43.514 13.3277C44.3716 13.5541 45.0036 13.8589 45.41 14.2429C45.8172 14.6269 46.0204 15.1461 46.0204 15.8005Z" fill="white"/>
<path fill-rule="evenodd" clip-rule="evenodd" d="M49.5088 16.5286C49.7456 16.6982 50.0784 16.783 50.5072 16.783C50.6992 16.783 50.9024 16.755 51.1176 16.6982C51.3312 16.6422 51.5176 16.5742 51.676 16.495C51.7552 16.5854 51.8256 16.687 51.888 16.7998C51.9496 16.9126 51.9808 17.0478 51.9808 17.2062C51.9808 17.4998 51.8312 17.7422 51.532 17.9342C51.2328 18.1262 50.7784 18.2222 50.1688 18.2222C49.3224 18.2222 48.648 18.0334 48.1456 17.655C47.6432 17.2774 47.392 16.6534 47.392 15.783V7.8766C47.4704 7.8534 47.584 7.8254 47.7304 7.791C47.8768 7.7574 48.0352 7.7406 48.2048 7.7406C48.532 7.7406 48.772 7.803 48.9248 7.927C49.0768 8.0502 49.1528 8.259 49.1528 8.5526V10.2294H51.7776C51.8232 10.2974 51.8648 10.3926 51.9048 10.5166C51.944 10.6414 51.964 10.771 51.964 10.907C51.964 11.3926 51.7552 11.635 51.3368 11.635H49.1528V15.6654C49.1528 16.0718 49.2712 16.3598 49.5088 16.5286Z" fill="white"/>
<path fill-rule="evenodd" clip-rule="evenodd" d="M55.1135 17.9512C55.0335 17.9848 54.9239 18.016 54.7831 18.044C54.6415 18.072 54.4871 18.0864 54.3175 18.0864C53.9903 18.0864 53.7471 18.024 53.5895 17.9008C53.4311 17.776 53.3527 17.5672 53.3527 17.2728V11.72C53.3527 11.4376 53.4087 11.2088 53.5215 11.0344C53.6335 10.8592 53.8151 10.6928 54.0639 10.5344C54.3911 10.3312 54.8079 10.1624 55.3167 10.0264C55.8247 9.89124 56.3831 9.82324 56.9927 9.82324C57.9863 9.82324 58.4831 10.1056 58.4831 10.6688C58.4831 10.8048 58.4607 10.9328 58.4151 11.0512C58.3695 11.1688 58.3191 11.2736 58.2631 11.364C58.1495 11.3416 58.0087 11.3192 57.8399 11.2968C57.6703 11.2736 57.4895 11.2624 57.2975 11.2624C56.8463 11.2624 56.4335 11.3104 56.0615 11.4056C55.6895 11.5016 55.3727 11.624 55.1135 11.7704V17.9512Z" fill="white"/>
<path fill-rule="evenodd" clip-rule="evenodd" d="M62.8494 16.8506C63.2446 16.8506 63.5894 16.8114 63.8822 16.733C64.175 16.6538 64.3846 16.5682 64.5086 16.4778V14.3282L62.6638 14.5138C62.143 14.5706 61.7543 14.6858 61.4951 14.861C61.2351 15.0354 61.1055 15.3034 61.1055 15.6658C61.1055 16.0378 61.2463 16.3282 61.5287 16.537C61.8102 16.7458 62.251 16.8506 62.8494 16.8506ZM62.8158 9.82336C63.8654 9.82336 64.7006 10.0514 65.3222 10.509C65.9422 10.9666 66.2526 11.6858 66.2526 12.6674V16.6138C66.2526 16.873 66.1942 17.073 66.075 17.2146C65.9566 17.3562 65.7966 17.4882 65.5934 17.6122C65.299 17.7818 64.9206 17.929 64.4582 18.053C63.995 18.177 63.4598 18.2386 62.8494 18.2386C61.7542 18.2386 60.899 18.0242 60.2846 17.5954C59.6679 17.1666 59.3615 16.5346 59.3615 15.6994C59.3615 14.9538 59.6007 14.3842 60.0806 13.989C60.5606 13.5938 61.2518 13.3514 62.155 13.261L64.5086 13.0234V12.6506C64.5086 12.1546 64.3478 11.7938 64.0262 11.5674C63.7046 11.3418 63.2558 11.229 62.6798 11.229C62.2286 11.229 61.7942 11.2914 61.3766 11.4146C60.959 11.5394 60.5862 11.6802 60.259 11.8378C60.1454 11.7482 60.0494 11.637 59.9702 11.5074C59.8918 11.3778 59.8526 11.2338 59.8526 11.0762C59.8526 10.8842 59.8999 10.7266 59.9966 10.6018C60.0926 10.4778 60.2414 10.3706 60.4446 10.2802C60.7606 10.1226 61.1222 10.0066 61.5286 9.93376C61.935 9.86016 62.3638 9.82336 62.8158 9.82336Z" fill="white"/>
<path fill-rule="evenodd" clip-rule="evenodd" d="M72.2134 12.9723C72.9926 12.9723 73.6038 12.8027 74.051 12.4643C74.4958 12.1259 74.719 11.6187 74.719 10.9403C74.719 10.2627 74.507 9.76669 74.0846 9.45069C73.6614 9.13469 73.0542 8.97629 72.2638 8.97629C72.0038 8.97629 71.7478 8.98829 71.4942 9.01069C71.239 9.03309 71.0102 9.06109 70.807 9.09469V12.9723H72.2134ZM70.8247 14.4459V17.9515C70.7343 17.9851 70.6159 18.0163 70.4686 18.0443C70.3223 18.0723 70.1582 18.0867 69.9774 18.0867C69.6278 18.0867 69.3766 18.0219 69.2246 17.8915C69.0718 17.7619 68.9958 17.5443 68.9958 17.2395V8.50189C68.9958 8.30989 69.0494 8.16109 69.1566 8.05389C69.2638 7.94669 69.4126 7.86429 69.6046 7.80829C69.955 7.68429 70.3727 7.59949 70.8583 7.55469C71.3431 7.50909 71.8007 7.48669 72.2303 7.48669C73.6967 7.48669 74.7839 7.79709 75.4895 8.41789C76.1959 9.03869 76.5479 9.88029 76.5479 10.9403C76.5479 12.0019 76.1959 12.8515 75.4895 13.4891C74.7839 14.1267 73.7303 14.4459 72.3311 14.4459H70.8247Z" fill="white"/>
<path fill-rule="evenodd" clip-rule="evenodd" d="M80.9143 16.8506C81.3095 16.8506 81.6535 16.8114 81.9471 16.733C82.2399 16.6538 82.4495 16.5682 82.5735 16.4778V14.3282L80.7287 14.5138C80.2087 14.5706 79.8191 14.6858 79.5599 14.861C79.2991 15.0354 79.1695 15.3034 79.1695 15.6658C79.1695 16.0378 79.3103 16.3282 79.5935 16.537C79.8751 16.7458 80.3159 16.8506 80.9143 16.8506ZM80.8807 9.82336C81.9303 9.82336 82.7655 10.0514 83.3871 10.509C84.0063 10.9666 84.3175 11.6858 84.3175 12.6674V16.6138C84.3175 16.873 84.2591 17.073 84.1399 17.2146C84.0215 17.3562 83.8607 17.4882 83.6575 17.6122C83.3639 17.7818 82.9855 17.929 82.5231 18.053C82.0599 18.177 81.5239 18.2386 80.9143 18.2386C79.8191 18.2386 78.9639 18.0242 78.3487 17.5954C77.7335 17.1666 77.4263 16.5346 77.4263 15.6994C77.4263 14.9538 77.6655 14.3842 78.1455 13.989C78.6255 13.5938 79.3159 13.3514 80.2199 13.261L82.5735 13.0234V12.6506C82.5735 12.1546 82.4127 11.7938 82.0911 11.5674C81.7695 11.3418 81.3207 11.229 80.7447 11.229C80.2935 11.229 79.8583 11.2914 79.4407 11.4146C79.0239 11.5394 78.6511 11.6802 78.3239 11.8378C78.2103 11.7482 78.1143 11.637 78.0351 11.5074C77.9567 11.3778 77.9167 11.2338 77.9167 11.0762C77.9167 10.8842 77.9647 10.7266 78.0607 10.6018C78.1567 10.4778 78.3063 10.3706 78.5095 10.2802C78.8263 10.1226 79.1871 10.0066 79.5935 9.93376C79.9991 9.86016 80.4287 9.82336 80.8807 9.82336Z" fill="white"/>
<path fill-rule="evenodd" clip-rule="evenodd" d="M87.908 16.1395C87.6248 15.5867 87.2816 14.8011 86.8744 13.7859C86.468 12.7691 86.0728 11.6187 85.6896 10.3307C85.7912 10.2067 85.9256 10.1027 86.0952 10.0179C86.2648 9.93315 86.4456 9.89075 86.6376 9.89075C86.8856 9.89075 87.0896 9.94995 87.2472 10.0683C87.4048 10.1875 87.5352 10.3923 87.6368 10.6867C87.9416 11.6011 88.2576 12.5011 88.5848 13.3883C88.912 14.2739 89.2736 15.1899 89.6688 16.1395H89.736C89.9056 15.7779 90.0776 15.3547 90.2528 14.8691C90.4272 14.3843 90.5992 13.8699 90.7688 13.3275C90.9384 12.7867 91.096 12.2355 91.2432 11.6771C91.3904 11.1187 91.52 10.5851 91.6328 10.0779C91.7456 10.0211 91.8608 9.97555 91.98 9.94195C92.0984 9.90835 92.2368 9.89075 92.3944 9.89075C92.6432 9.89075 92.852 9.94995 93.0216 10.0683C93.1912 10.1875 93.2752 10.3707 93.2752 10.6187C93.2752 10.9123 93.1992 11.3611 93.0472 11.9651C92.8944 12.5691 92.6936 13.2355 92.4464 13.9627C92.1968 14.6907 91.9152 15.4275 91.5984 16.1731C91.2832 16.9187 90.9664 17.5787 90.6504 18.1547C90.0864 19.1483 89.5752 19.9035 89.1184 20.4227C88.6608 20.9427 88.2288 21.2027 87.8232 21.2027C87.5064 21.2027 87.256 21.1147 87.0688 20.9395C86.8832 20.7643 86.7672 20.5475 86.7224 20.2883C86.9024 20.1291 87.1 19.9379 87.3152 19.7123C87.5288 19.4859 87.744 19.2435 87.9584 18.9843C88.1728 18.7243 88.3752 18.4563 88.5672 18.1795C88.7592 17.9035 88.924 17.6347 89.0584 17.3747C88.8664 17.3187 88.6808 17.2091 88.5 17.0451C88.3192 16.8819 88.1224 16.5795 87.908 16.1395Z" fill="white"/>
</svg>
